<svg width="1923" height="1639" viewBox="0 0 1923 1639" fill="none" xmlns="http://www.w3.org/2000/svg">
<rect x="1922" y="1639" width="1922" height="1639" transform="rotate(-180 1922 1639)" fill="url(#paint0_linear)"/>
<mask id="mask0" mask-type="alpha" maskUnits="userSpaceOnUse" x="1" y="0" width="1923" height="1639">
<path d="M1923 1638.01L1.00111 1638.01L1.00126 0.991902L962.001 0.991864L1923 0.992068L1923 1638.01Z" fill="url(#paint1_linear)"/>
</mask>
<g mask="url(#mask0)">
<path d="M1390.02 -22.7422C1390.02 306.498 1657.31 573.707 1986.64 573.707V-22.7422L1390.02 -22.7422Z" fill="#8C80FC"/>
<path d="M1422.64 1815.07C1422.64 1485.83 1155.36 1218.62 826.02 1218.62L826.02 1815.07H1422.64Z" fill="#59B1FE"/>
<path d="M809.014 314.004C803.491 314.004 799.005 318.52 799.097 324.042C804.409 645.32 1064.23 905.062 1385.6 910.371C1391.12 910.462 1395.63 905.976 1395.63 900.453V324.004C1395.63 318.481 1391.16 314.004 1385.63 314.004L809.014 314.004Z" fill="#6E9CFD"/>
<path d="M1971.54 828.895C1653.25 828.895 1394.94 1081.04 1394.94 1391.71L1971.54 1391.71L1971.54 828.895Z" fill="#7E8DFC"/>
<path d="M-54.0361 1127.62C264.247 1127.62 522.564 1379.76 522.564 1690.44L-54.0361 1690.44L-54.0361 1127.62Z" fill="#58B4FE"/>
<path d="M499.615 -108.797C499.615 205.701 244.438 460.946 -69.9774 460.946L-69.9774 -108.797L499.615 -108.797Z" fill="#52B7FE"/>
</g>
<rect x="1" y="1" width="1921" height="1638"/>
<defs>
<linearGradient id="paint0_linear" x1="3844" y1="1599.98" x2="1533.6" y2="2597.78" gradientUnits="userSpaceOnUse">
<stop stop-color="#35D3FF"/>
<stop offset="1" stop-color="#A963FB"/>
</linearGradient>
<linearGradient id="paint1_linear" x1="1.00125" y1="1676.99" x2="2310.52" y2="678.361" gradientUnits="userSpaceOnUse">
<stop stop-color="#35D3FF"/>
<stop offset="1" stop-color="#A963FB"/>
</linearGradient>
</defs>
</svg>
